<svg xmlns="http://www.w3.org/2000/svg" width="171" height="28" viewBox="0 0 171 28">
    <g fill="none" fill-rule="evenodd">
        <path fill="#000" d="M68.72 25.517v1.092h.69c.195 0 .348-.047.458-.142a.49.49 0 0 0 .164-.393c0-.363-.19-.549-.57-.557h-.742zm0-.446h.61c.193 0 .344-.043.453-.128a.434.434 0 0 0 .163-.364c0-.172-.05-.297-.15-.374-.102-.077-.259-.115-.472-.115h-.604v.981zm-.622 2.023V23.6h1.226c.405 0 .713.079.925.237.211.158.317.394.317.708a.74.74 0 0 1-.133.432.85.85 0 0 1-.388.297.79.79 0 0 1 .448.29.828.828 0 0 1 .159.51c0 .327-.108.579-.324.755-.215.176-.524.264-.925.264h-1.305zM74.363 26.61h1.624v.484h-2.246V23.6h.622zM81.424 25.256c0-.387-.075-.684-.225-.89-.15-.206-.362-.31-.638-.31a.74.74 0 0 0-.63.309c-.152.205-.23.496-.233.872v.201c0 .384.077.68.23.89.154.21.366.315.638.315.276 0 .487-.103.636-.307.148-.205.222-.504.222-.898v-.182zm.622.182c0 .343-.06.643-.182.901a1.35 1.35 0 0 1-.52.595 1.458 1.458 0 0 1-.778.208c-.29 0-.548-.07-.775-.208a1.37 1.37 0 0 1-.526-.591 2.032 2.032 0 0 1-.188-.886v-.196c0-.34.061-.641.185-.902a1.369 1.369 0 0 1 1.3-.806c.291 0 .55.068.775.205.225.137.4.333.522.59.123.257.185.555.187.896v.194zM87.979 25.957c-.036.372-.177.663-.423.872-.246.209-.572.313-.98.313a1.42 1.42 0 0 1-.754-.198 1.31 1.31 0 0 1-.503-.563 1.99 1.99 0 0 1-.184-.847v-.326a2 2 0 0 1 .18-.87c.12-.252.29-.445.515-.582.223-.136.482-.203.775-.203.395 0 .713.104.954.313.24.208.38.504.42.886h-.62c-.03-.251-.104-.432-.225-.543-.12-.112-.296-.167-.529-.167-.27 0-.478.096-.623.29-.146.192-.22.475-.223.848v.31c0 .378.07.666.208.865.138.198.341.297.608.297.244 0 .428-.053.551-.16.123-.108.2-.286.233-.535h.62zM92.096 25.585l-.406.42v1.089h-.622V23.6h.622v1.638l.344-.415 1.047-1.223h.752l-1.33 1.547 1.407 1.946h-.738zM99.843 25.957c-.036.372-.177.663-.423.872-.246.209-.573.313-.98.313a1.42 1.42 0 0 1-.754-.198 1.308 1.308 0 0 1-.503-.563 1.99 1.99 0 0 1-.184-.847v-.326c0-.33.06-.62.179-.87.12-.252.291-.445.515-.582.223-.136.482-.203.776-.203.395 0 .712.104.953.313.241.208.381.504.42.886h-.619c-.03-.251-.104-.432-.225-.543-.12-.112-.297-.167-.53-.167-.27 0-.478.096-.622.29-.146.192-.22.475-.223.848v.31c0 .378.069.666.208.865.138.198.34.297.608.297.244 0 .428-.053.55-.16.123-.108.202-.286.234-.535h.62zM105.773 27.094h-.62v-1.55h-1.6v1.55h-.621V23.6h.621v1.454h1.6V23.6h.62zM109.973 25.791h1.038l-.519-1.449-.519 1.449zm1.212.49H109.8l-.29.813h-.647l1.352-3.494h.558l1.355 3.494h-.65l-.292-.814zM115.216 27.094h.62V23.6h-.62zM121.763 27.094h-.622l-1.595-2.479v2.479h-.622V23.6h.622l1.6 2.487v-2.487h.617zM84.09 8.38c-.926 0-1.685.324-2.279.972-.594.648-.966 1.569-1.115 2.762h6.34v-.423c0-1.061-.254-1.879-.763-2.451-.51-.574-1.238-.86-2.182-.86M73.947 18.848c.543 0 1.132-.138 1.768-.415.636-.277 1.165-.618 1.586-1.022v-2.944h-2.75c-.973.019-1.74.25-2.301.697-.562.446-.842.998-.842 1.656 0 .61.217 1.101.652 1.472.435.371 1.064.556 1.887.556m10.649 2.593c-2.367 0-4.205-.756-5.514-2.268-.608.723-1.412 1.282-2.413 1.676-1 .395-2.128.592-3.381.592-1.646 0-2.937-.413-3.872-1.24-.936-.826-1.403-1.972-1.403-3.438 0-1.484.556-2.63 1.669-3.438 1.113-.807 2.76-1.211 4.939-1.211h2.68v-1c0-.855-.223-1.525-.667-2.009-.444-.483-1.078-.725-1.901-.725-.851 0-1.546.21-2.083.627-.538.418-.807.937-.807 1.557l-3.395-.268c0-1.371.591-2.491 1.774-3.36 1.183-.87 2.696-1.304 4.539-1.304 2.085 0 3.648.625 4.686 1.874 1.225-1.268 2.773-1.892 4.644-1.874 1.982 0 3.53.609 4.644 1.825 1.112 1.217 1.669 2.928 1.669 5.136v1.93h-9.75c.084 1.306.48 2.33 1.192 3.072.71.742 1.693 1.113 2.946 1.113 1.281 0 2.422-.273 3.423-.817l.856-.48 1.025 2.34c-.655.526-1.472.939-2.449 1.239-.977.3-1.994.451-3.051.451M97.095 2.208v3.706h2.68V8.45h-2.68v8.51c0 .583.114 1.003.344 1.262.228.258.638.387 1.227.387.393 0 .79-.047 1.193-.14v2.648a8.361 8.361 0 0 1-2.245.324c-2.619 0-3.929-1.451-3.929-4.354V8.45h-2.497V5.914h2.497V2.208h3.41zM107.71 8.38c-.935 0-1.69.329-2.266.986-.575.658-.942 1.573-1.101 2.748h6.496v-.254c-.075-1.146-.379-2.013-.912-2.6-.533-.586-1.272-.88-2.217-.88m.407 13.061c-2.16 0-3.912-.683-5.254-2.05-1.342-1.367-2.013-3.186-2.013-5.46v-.422c0-1.522.292-2.882.877-4.08.584-1.197 1.405-2.13 2.462-2.796 1.056-.667 2.235-1 3.535-1 2.067 0 3.664.662 4.792 1.986 1.126 1.324 1.69 3.198 1.69 5.622v1.38h-9.919c.103 1.26.521 2.255 1.256 2.988.734.732 1.657 1.099 2.77 1.099 1.562 0 2.835-.635 3.817-1.902l1.837 1.76a6.145 6.145 0 0 1-2.434 2.121c-1.014.503-2.153.754-3.416.754M124.462 9.042a8.4 8.4 0 0 0-1.389-.113c-1.562 0-2.614.601-3.156 1.804v10.426h-3.41V5.914h3.256l.084 1.705c.823-1.324 1.964-1.987 3.423-1.987.486 0 .888.066 1.206.197l-.014 3.213zM129.45 5.914l.098 1.761c1.122-1.362 2.595-2.042 4.419-2.042 3.161 0 4.77 1.817 4.826 5.452V21.16h-3.409v-9.877c0-.967-.208-1.683-.625-2.148-.416-.465-1.096-.698-2.04-.698-1.376 0-2.4.625-3.073 1.874v10.85h-3.41V5.913h3.213zM141.374 21.16h3.409V5.913h-3.41V21.16zm-.21-19.205c0-.526.165-.963.497-1.31.332-.348.807-.522 1.424-.522.618 0 1.094.174 1.431.522.337.347.505.784.505 1.31 0 .517-.168.946-.505 1.289-.337.343-.813.514-1.43.514-.618 0-1.093-.17-1.425-.514-.332-.343-.498-.772-.498-1.29zM152.977 2.208v3.706h2.68V8.45h-2.68v8.51c0 .583.114 1.003.344 1.262.228.258.638.387 1.227.387.393 0 .79-.047 1.193-.14v2.648a8.361 8.361 0 0 1-2.245.324c-2.62 0-3.929-1.451-3.929-4.354V8.45h-2.497V5.914h2.497V2.208h3.41zM163.84 16.256l3.086-10.342h3.634l-6.033 17.556c-.926 2.564-2.497 3.846-4.714 3.846-.496 0-1.043-.085-1.641-.255V24.4l.645.042c.86 0 1.509-.157 1.943-.471.435-.315.779-.843 1.031-1.584l.491-1.31-5.33-15.163h3.675l3.213 10.342z"/>
        <path fill="#F7296E" d="M43.871 0c-5.546 0-9.348 3.497-12.633 7.83l1.947 2.87c3.01-4.155 6.208-7.424 10.686-7.424 5.144 0 9.42 3.762 10.21 8.67H41.314v3.276h16.074c.065-.537.1-1.084.1-1.638C57.486 6.094 51.378 0 43.87 0"/>
        <path fill="#F7296E" d="M43.871 23.892c-5.476 0-9.09-4.772-13.676-11.775C25.608 5.115 21.278 0 14.563 0 7.055 0 .947 6.094.947 13.584c0 7.49 6.108 13.584 13.616 13.584 5.536 0 9.334-3.485 12.616-7.807l-1.933-2.888c-3.009 4.153-6.207 7.42-10.683 7.42-5.703 0-10.343-4.625-10.343-10.309C4.22 7.9 8.86 3.276 14.563 3.276c5.476 0 8.894 4.53 13.666 11.763 4.772 7.234 8.927 12.129 15.642 12.129 5.772 0 10.715-3.602 12.693-8.67h-3.603a10.357 10.357 0 0 1-9.09 5.394"/>
    </g>
</svg>
