<svg xmlns="http://www.w3.org/2000/svg" width="50" height="24" viewBox="0 0 50 24">
    <g fill="#F7296E" fill-rule="evenodd">
        <path d="M37.96 0c-4.898 0-8.256 3.06-11.158 6.853l1.72 2.512c2.658-3.637 5.483-6.498 9.438-6.498 4.543 0 8.32 3.293 9.018 7.589H35.7v2.867h14.196c.057-.47.088-.949.088-1.434C49.985 5.334 44.59 0 37.96 0"/>
        <path d="M37.96 20.911c-4.836 0-8.028-4.177-12.079-10.306C21.831 4.477 18.006 0 12.075 0 5.445 0 .05 5.334.05 11.89c0 6.555 5.395 11.888 12.025 11.888 4.89 0 8.244-3.05 11.143-6.833l-1.707-2.528c-2.658 3.635-5.482 6.494-9.436 6.494-5.037 0-9.134-4.047-9.134-9.022 0-4.974 4.097-9.022 9.134-9.022 4.837 0 7.856 3.964 12.07 10.296 4.214 6.331 7.884 10.615 13.815 10.615 5.097 0 9.463-3.152 11.21-7.588h-3.182a9.16 9.16 0 0 1-8.028 4.721"/>
    </g>
</svg>
