<svg xmlns="http://www.w3.org/2000/svg" width="48" height="48" viewBox="0 0 48 48">
    <g fill="#F7296E" fill-rule="evenodd">
        <path d="M18.19 36h14.073a.64.64 0 0 0 .626-.652V17.87a.64.64 0 0 0-.626-.652h-.938v-4.566a.64.64 0 0 0-.625-.652L19.128 12C17.408 12 16 13.467 16 15.26v18.457C16 34.99 16.97 36 18.19 36zM31.637 18.52v16.174H18.189c-.531 0-.938-.424-.938-.978V17.87a2.931 2.931 0 0 0 1.877.652h12.51zm-12.51-5.217h10.946v3.913H19.128c-1.033 0-1.877-.88-1.877-1.956 0-1.077.844-1.957 1.877-1.957z"/>
        <path d="M20.222 32.444h9.334c.367 0 .666-.299.666-.666V25.11c0-.367-.3-.667-.666-.667h-9.334c-.367 0-.666.3-.666.667v6.667c0 .367.299.666.666.666zm.667-6.666h8v5.333h-8v-5.333zM20.222 22.667h9.334c.367 0 .666-.2.666-.445s-.3-.444-.666-.444h-9.334c-.367 0-.666.2-.666.444s.299.445.666.445z"/>
    </g>
</svg>
