<svg xmlns="http://www.w3.org/2000/svg" width="24" height="24" viewBox="0 0 24 24">
    <path fill="#FFFFFF" fill-rule="evenodd" d="M22.143 5.91a11.819 11.819 0 0 0-4.32-4.318C16.006.53 14.022 0 11.869 0 9.714 0 7.729.53 5.91 1.592A11.817 11.817 0 0 0 1.592 5.91C.53 7.73 0 9.714 0 11.867c0 2.586.755 4.911 2.263 6.976 1.51 2.065 3.46 3.495 5.85 4.288.277.052.484.016.617-.107a.605.605 0 0 0 .2-.464l-.006-.835c-.006-.525-.009-.983-.009-1.375l-.355.062c-.226.042-.513.06-.857.054a6.483 6.483 0 0 1-1.074-.109 2.392 2.392 0 0 1-1.036-.463 1.956 1.956 0 0 1-.68-.95l-.154-.355a3.857 3.857 0 0 0-.486-.788c-.222-.288-.446-.485-.672-.588l-.109-.076a1.154 1.154 0 0 1-.2-.186.82.82 0 0 1-.14-.216c-.03-.072-.005-.132.077-.178.083-.047.233-.07.448-.07l.31.047c.205.04.46.165.765.37.303.207.553.474.749.804.237.422.522.744.857.966.335.221.673.331 1.013.331.34 0 .633-.026.88-.076.248-.052.479-.13.696-.232.092-.69.345-1.221.756-1.592a10.536 10.536 0 0 1-1.583-.279 6.246 6.246 0 0 1-1.452-.603 4.163 4.163 0 0 1-1.245-1.034c-.329-.412-.6-.954-.81-1.622-.212-.67-.317-1.443-.317-2.318 0-1.247.407-2.308 1.22-3.184-.381-.937-.345-1.987.109-3.151.298-.094.742-.023 1.329.208.587.232 1.017.43 1.29.594.273.165.492.305.656.418a10.98 10.98 0 0 1 2.968-.402c1.019 0 2.008.135 2.966.402l.588-.371c.4-.248.875-.473 1.421-.68.546-.206.963-.262 1.252-.17.463 1.165.505 2.215.123 3.153.814.875 1.22 1.936 1.22 3.183 0 .875-.105 1.65-.316 2.325-.21.675-.483 1.216-.818 1.622a4.32 4.32 0 0 1-1.252 1.028 6.29 6.29 0 0 1-1.453.602c-.468.125-.996.217-1.583.28.535.463.803 1.194.803 2.193v3.26c0 .186.065.34.193.464.129.123.332.16.61.108 2.39-.794 4.34-2.223 5.849-4.289 1.51-2.065 2.264-4.39 2.264-6.975-.001-2.153-.532-4.138-1.592-5.957z"/>
</svg>
