<svg xmlns="http://www.w3.org/2000/svg" width="23" height="23" viewBox="0 0 23 23">
    <path fill="#FFFFFF" fill-rule="nonzero" d="M0 0h22.5v22.5H0V0zm5.734 7.524v6.89a.827.827 0 0 1-.198.684L4 17.084v.262h4.356v-.262L6.82 15.098a.856.856 0 0 1-.212-.684V8.456l3.824 8.89h.444l3.284-8.89v7.086c0 .189 0 .225-.116.349l-1.182 1.222v.262h5.736v-.262l-1.14-1.193a.376.376 0 0 1-.13-.35V6.805a.376.376 0 0 1 .13-.349l1.167-1.193V5h-4.042l-2.881 7.66L8.424 5h-4.24v.262L5.55 7.015a.625.625 0 0 1 .184.51z"/>
</svg>
