<svg xmlns="http://www.w3.org/2000/svg" width="23" height="23" viewBox="0 0 23 23">
    <path fill="#1E1E1E" fill-rule="nonzero" d="M21.21 8.025C18.927.415 15.635-1.355 8.025.928.415 3.211-1.355 6.503.928 14.113c2.283 7.61 5.575 9.38 13.185 7.097 7.61-2.283 9.38-5.575 7.097-13.185zm-3.84 4.938l-1.434.478.496 1.486a1.149 1.149 0 0 1-.726 1.452c-.124.035-.265.07-.39.053a1.181 1.181 0 0 1-1.061-.779l-.496-1.487-2.955.991.495 1.487a1.149 1.149 0 0 1-.725 1.451c-.124.036-.266.071-.39.054a1.181 1.181 0 0 1-1.062-.78l-.495-1.486-1.434.478c-.124.035-.265.07-.39.053a1.181 1.181 0 0 1-1.061-.779 1.149 1.149 0 0 1 .726-1.45l1.433-.479-.956-2.85-1.433.479c-.124.035-.266.07-.39.053a1.181 1.181 0 0 1-1.061-.779 1.149 1.149 0 0 1 .725-1.451L6.22 8.68l-.496-1.487a1.149 1.149 0 0 1 .726-1.451 1.149 1.149 0 0 1 1.451.726l.496 1.486 2.955-.99-.495-1.488a1.149 1.149 0 0 1 .725-1.45 1.149 1.149 0 0 1 1.452.725l.495 1.486 1.434-.477a1.149 1.149 0 0 1 1.451.725 1.149 1.149 0 0 1-.726 1.452l-1.433.477.956 2.85 1.433-.478a1.149 1.149 0 0 1 1.451.726 1.149 1.149 0 0 1-.725 1.45zm-8.254-2.811l2.954-.99.955 2.853-2.953.99-.956-2.853z"/>
</svg>
