<svg xmlns="http://www.w3.org/2000/svg" width="23" height="19" viewBox="0 0 23 19">
    <path fill="#FFFFFF" fill-rule="evenodd" d="M7.12 18.4c8.543 0 13.214-7.078 13.214-13.216 0-.201-.004-.401-.013-.6a9.45 9.45 0 0 0 2.317-2.406 9.27 9.27 0 0 1-2.667.732A4.66 4.66 0 0 0 22.013.34a9.307 9.307 0 0 1-2.949 1.128 4.646 4.646 0 0 0-7.915 4.236A13.186 13.186 0 0 1 1.576.85a4.63 4.63 0 0 0-.63 2.334c0 1.612.82 3.035 2.067 3.867A4.61 4.61 0 0 1 .91 6.47l-.001.059a4.647 4.647 0 0 0 3.726 4.554 4.657 4.657 0 0 1-2.097.08 4.65 4.65 0 0 0 4.338 3.226 9.32 9.32 0 0 1-5.768 1.988c-.375 0-.744-.022-1.108-.064A13.148 13.148 0 0 0 7.12 18.4"/>
</svg>
