<svg xmlns="http://www.w3.org/2000/svg" width="43" height="42" viewBox="0 0 43 42">
    <g fill="#F7296E" fill-rule="evenodd">
        <path d="M1.281 25h.14-.002a1.15 1.15 0 0 0 1.014-1.293 19.096 19.096 0 0 1 4-14.109 19.281 19.281 0 0 1 12.855-7.163c5.071-.599 10.173.83 14.184 3.974a19.01 19.01 0 0 1 7.206 12.79c.076.635.654 1.09 1.292 1.015a1.159 1.159 0 0 0 1.022-1.286c-.91-7.614-5.832-14.166-12.915-17.19a21.665 21.665 0 0 0-21.42 2.533A21.412 21.412 0 0 0 .15 23.992c.07.569.553.998 1.13 1.007V25z"/>
        <path d="M17.648 41.881c.565.278 1.25.052 1.532-.509a35.741 35.741 0 0 0 3.561-20.363 1.151 1.151 0 0 0-1.28-1.001 1.145 1.145 0 0 0-1.008 1.269 33.508 33.508 0 0 1-3.336 19.084 1.124 1.124 0 0 0-.054.87c.1.285.31.52.585.65zM35.854 35.979a.977.977 0 0 0 .788-.174c.23-.17.387-.431.438-.727a54.763 54.763 0 0 0 .587-16.027c-.306-2.75-1.268-5.37-2.791-7.6-.346-.498-1-.599-1.46-.226-.46.373-.553 1.079-.208 1.576a14.442 14.442 0 0 1 2.405 6.557 52.305 52.305 0 0 1-.563 15.31c-.106.602.252 1.182.804 1.31zM4.73 33.915c.285.114.602.114.884-.003.283-.117.507-.34.622-.62A20.858 20.858 0 0 0 7.681 22.8a13.712 13.712 0 0 1 2.425-9.558 14.13 14.13 0 0 1 8.26-5.57 14.329 14.329 0 0 1 9.94 1.219 1.165 1.165 0 0 0 1.56-.472 1.126 1.126 0 0 0-.48-1.535 16.672 16.672 0 0 0-11.57-1.428 16.43 16.43 0 0 0-9.618 6.484 15.947 15.947 0 0 0-2.82 11.127 18.638 18.638 0 0 1-1.294 9.37c-.115.28-.112.594.01.873.122.276.35.496.636.606z"/>
        <path d="M23 41.909c.593.244 1.284-.018 1.542-.585A39.13 39.13 0 0 0 27.7 20.427c-.184-1.615-1.036-3.092-2.367-4.104a6.578 6.578 0 0 0-4.716-1.28c-1.688.191-3.225 1.018-4.272 2.299a5.893 5.893 0 0 0-1.294 4.518c.178 1.435.243 2.88.193 4.321-.02.622.49 1.142 1.14 1.162.65.019 1.193-.468 1.214-1.09a29.888 29.888 0 0 0-.206-4.658 3.705 3.705 0 0 1 .805-2.863 4.062 4.062 0 0 1 2.703-1.458 4.145 4.145 0 0 1 2.982.816 3.79 3.79 0 0 1 1.482 2.606 36.963 36.963 0 0 1-2.984 19.728 1.08 1.08 0 0 0-.015.865c.116.279.344.502.633.62zM12.623 40.859a1.187 1.187 0 0 0 1.598-.467 31.98 31.98 0 0 0 2.74-6.925 1.17 1.17 0 0 0-.843-1.429 1.186 1.186 0 0 0-1.445.834 29.526 29.526 0 0 1-2.541 6.423 1.161 1.161 0 0 0 .49 1.564z"/>
        <path d="M29.794 20.045c.083.549.549.955 1.095.955h.146a1.12 1.12 0 0 0 .957-1.252c-.388-3.297-2.215-6.243-4.973-8.024a10.748 10.748 0 0 0-9.264-1.163c-.279.097-.509.301-.64.568-.13.27-.15.579-.057.862.195.59.825.907 1.406.708a8.552 8.552 0 0 1 7.385.93 8.828 8.828 0 0 1 3.955 6.404l-.01.012zM28.868 40.949c.65.183 1.343-.138 1.557-.722a41.598 41.598 0 0 0 2.574-13.067c.022-.621-.52-1.14-1.21-1.16-.688-.017-1.263.472-1.284 1.093A39.55 39.55 0 0 1 28.06 39.53c-.103.285-.074.595.076.86.152.267.415.467.73.559zM8.58 37.875c.252.137.545.162.815.072.268-.09.492-.29.622-.557 2.247-4.58 3.138-9.766 2.557-14.884a9.16 9.16 0 0 1 1.279-5.814c.29-.518.14-1.184-.338-1.512a1.033 1.033 0 0 0-1.449.291 11.516 11.516 0 0 0-1.62 7.295A24.588 24.588 0 0 1 8.12 36.359c-.13.264-.154.573-.07.859.087.284.278.52.532.657z"/>
    </g>
</svg>
