<svg xmlns="http://www.w3.org/2000/svg" width="48" height="48" viewBox="0 0 48 48">
    <g fill="#F7296E" fill-rule="evenodd">
        <path d="M31.79 16.806c-2.94 0-4.954 1.786-6.695 3.998l1.031 1.465c1.595-2.121 3.29-3.79 5.663-3.79 2.726 0 4.993 1.92 5.411 4.427h-6.766v1.672h8.518c.034-.274.052-.553.052-.836 0-3.824-3.236-6.936-7.215-6.936"/>
        <path d="M31.79 29.005c-2.902 0-4.817-2.437-7.248-6.012-2.43-3.575-4.725-6.187-8.283-6.187-3.979 0-7.215 3.112-7.215 6.936s3.236 6.935 7.215 6.935c2.933 0 4.946-1.78 6.685-3.986l-1.024-1.474c-1.595 2.12-3.29 3.788-5.661 3.788-3.023 0-5.481-2.361-5.481-5.263 0-2.902 2.458-5.263 5.48-5.263 2.902 0 4.714 2.312 7.242 6.006 2.529 3.693 4.73 6.192 8.29 6.192 3.058 0 5.677-1.839 6.726-4.426h-1.91c-.93 1.639-2.74 2.754-4.817 2.754"/>
    </g>
</svg>
