<svg xmlns="http://www.w3.org/2000/svg" width="48" height="48" viewBox="0 0 48 48">
    <g fill="#F7296E" fill-rule="nonzero">
        <path d="M20.46 22.431l4.056-1.7c.662-.276 1.705-.276 2.36 0l2.963 1.24c.544.232 1.474.232 2.027.001l2.958-1.24c.66-.278 1.698-.278 2.354 0l4.053 1.7a.452.452 0 1 0 .35-.838l-4.053-1.699c-.878-.372-2.17-.372-3.054 0l-2.956 1.24c-.33.137-1.006.137-1.327 0l-2.965-1.24c-.878-.37-2.174-.37-3.059 0l-4.057 1.7a.454.454 0 0 0 .35.836zM20.46 25.454l4.056-1.699c.662-.277 1.705-.277 2.36 0l2.963 1.24c.544.231 1.474.231 2.027 0l2.958-1.24c.66-.278 1.698-.278 2.354 0l4.053 1.7a.452.452 0 1 0 .35-.837l-4.053-1.7c-.878-.372-2.17-.372-3.054 0l-2.956 1.24c-.33.138-1.006.138-1.327.001l-2.965-1.24c-.878-.371-2.174-.371-3.059 0l-4.057 1.699a.454.454 0 0 0 .35.836z"/>
        <path d="M20.46 28.175l4.056-1.7c.662-.276 1.705-.276 2.36 0l2.963 1.241c.544.231 1.474.231 2.027 0l2.958-1.24c.66-.278 1.698-.278 2.354 0l4.053 1.7a.452.452 0 1 0 .35-.837l-4.053-1.7c-.878-.372-2.17-.372-3.054 0l-2.956 1.24c-.33.137-1.006.137-1.327.001l-2.965-1.24c-.878-.371-2.174-.371-3.059 0l-4.057 1.699a.454.454 0 0 0 .35.836z"/>
        <path d="M19.974 36.849c-7.082 0-12.823-5.753-12.823-12.849s5.741-12.849 12.823-12.849c7.082 0 12.823 5.753 12.823 12.849s-5.74 12.849-12.823 12.849zm0-.907c6.582 0 11.918-5.347 11.918-11.942s-5.336-11.942-11.918-11.942c-6.582 0-11.918 5.347-11.918 11.942s5.336 11.942 11.918 11.942z"/>
        <path d="M19.974 34.41c-5.738 0-10.39-4.66-10.39-10.41s4.652-10.41 10.39-10.41 10.39 4.66 10.39 10.41-4.652 10.41-10.39 10.41zm0-.907c5.238 0 9.485-4.254 9.485-9.503 0-5.249-4.247-9.503-9.485-9.503-5.238 0-9.484 4.254-9.484 9.503 0 5.249 4.246 9.503 9.484 9.503z"/>
    </g>
</svg>
