<svg xmlns="http://www.w3.org/2000/svg" width="48" height="48" viewBox="0 0 48 48">
    <path fill="#F7296E" fill-rule="evenodd" d="M23.18 20.287c.028.028.056.083.084.11l2.945 2.928c.14.138.309.194.505.194a.683.683 0 0 0 .505-.194c.281-.276.281-.718 0-.966l-1.767-1.74h6.032a.69.69 0 1 0 0-1.382h-6.06l1.795-1.767c.28-.276.28-.718 0-.967-.28-.276-.73-.276-.982 0l-2.974 2.929c-.029.028-.056.055-.085.11 0 0 0 .028-.028.028-.029.028-.029.055-.056.083 0 .028 0 .028-.028.055 0 .028-.029.055-.029.083v.276c0 .028.029.055.029.083 0 .028 0 .028.028.055.029 0 .029.027.057.054 0 0 0 .028.029.028zm14.783.073c0 2.003-.732 3.976-2.081 5.583.28.535.647.987 1.125 1.297.337.226.507.62.422 1.043a.927.927 0 0 1-.817.761 6.494 6.494 0 0 1-3.882-.564 11.634 11.634 0 0 1-5.374 1.298c-5.852 0-10.578-4.2-10.578-9.389 0-5.187 4.754-9.389 10.578-9.389 5.853-.027 10.607 4.202 10.607 9.36zM27.37 12.444c-5.05 0-9.148 3.565-9.148 7.945 0 4.38 4.098 7.944 9.148 7.944 1.796 0 3.508-.45 5.023-1.291a.775.775 0 0 1 .701 0c.646.392 1.403.617 2.273.645-.42-.45-.73-.982-.982-1.628a.76.76 0 0 1 .14-.73c1.292-1.403 1.993-3.116 1.993-4.94 0-4.38-4.097-7.945-9.148-7.945zm.47 18.176c-.363-.14-.753.055-.892.418-.948 2.702-3.875 4.568-7.138 4.568a8.315 8.315 0 0 1-4.099-1.059.771.771 0 0 0-.697 0c-.502.307-1.06.446-1.533.502.279-.334.474-.725.641-1.17a.754.754 0 0 0-.14-.725c-1.059-1.113-1.616-2.506-1.616-3.983 0-2.118 1.199-4.095 3.234-5.322a.686.686 0 0 0 .25-.947.687.687 0 0 0-.947-.25C12.45 24.1 11 26.552 11 29.171c0 1.643.586 3.288 1.701 4.625-.223.39-.502.725-.865.947a.901.901 0 0 0-.39.975c.084.362.39.641.781.696.697.084 1.952.14 3.207-.473 1.338.697 2.872 1.059 4.432 1.059 3.904 0 7.278-2.2 8.448-5.488a.777.777 0 0 0-.474-.893z"/>
</svg>
