<svg xmlns="http://www.w3.org/2000/svg" width="14" height="14" viewBox="0 0 14 14">
    <g fill="none" fill-rule="evenodd">
        <path fill="#8E8E93" d="M13.743 12.574L9.91 8.74a5.425 5.425 0 0 0 1.05-3.232A5.532 5.532 0 0 0 5.46 0 5.436 5.436 0 0 0 0 5.468a5.532 5.532 0 0 0 5.5 5.508 5.408 5.408 0 0 0 3.242-1.061l.004-.003 3.83 3.831a.826.826 0 1 0 1.167-1.169zM5.496 9.878a4.426 4.426 0 0 1-4.4-4.406 4.35 4.35 0 0 1 4.368-4.374 4.425 4.425 0 0 1 4.4 4.406 4.35 4.35 0 0 1-4.368 4.374z"/>
    </g>
</svg>
