<svg xmlns="http://www.w3.org/2000/svg" width="48" height="48" viewBox="0 0 48 48">
    <path fill="#F7296E" fill-rule="evenodd" d="M13.04 11A2.05 2.05 0 0 0 11 13.04v20.4a2.05 2.05 0 0 0 2.04 2.04h1.02v2.04c0 .375.304.68.68.68h4.76a.68.68 0 0 0 .68-.68v-2.04h7.48v2.04c0 .375.304.68.68.68h4.76a.68.68 0 0 0 .68-.68v-2.04h1.02a2.05 2.05 0 0 0 2.04-2.04v-20.4A2.05 2.05 0 0 0 34.8 11H13.04zm0 1.36H34.8c.39 0 .68.29.68.68v20.4c0 .39-.29.68-.68.68H13.04c-.39 0-.68-.29-.68-.68v-20.4c0-.39.29-.68.68-.68zm10.88 3.06c-4.311 0-7.82 3.509-7.82 7.82s3.509 7.82 7.82 7.82 7.82-3.509 7.82-7.82-3.509-7.82-7.82-7.82zm-.68 1.392v3.453c-.339.078-.66.202-.946.382l-2.433-2.433a6.441 6.441 0 0 1 3.379-1.402zm1.36 0a6.441 6.441 0 0 1 3.379 1.402l-2.433 2.434a3.045 3.045 0 0 0-.946-.383v-3.453zm-5.695 2.37l2.433 2.432a3.033 3.033 0 0 0-.393.946h-3.453a6.428 6.428 0 0 1 1.413-3.379zm10.03 0a6.439 6.439 0 0 1 1.413 3.378h-3.453a3.034 3.034 0 0 0-.393-.946l2.433-2.433zM23.92 21.54c.947 0 1.7.753 1.7 1.7s-.753 1.7-1.7 1.7a1.69 1.69 0 0 1-1.7-1.7c0-.947.753-1.7 1.7-1.7zm-6.428 2.38h3.453c.078.339.202.66.383.946l-2.423 2.433a6.439 6.439 0 0 1-1.413-3.379zm9.403 0h3.453a6.428 6.428 0 0 1-1.413 3.379l-2.423-2.433c.181-.286.305-.607.383-.946zm-4.6 1.902c.286.182.605.315.945.393v3.453a6.428 6.428 0 0 1-3.379-1.413l2.433-2.433zm3.25 0l2.434 2.433a6.439 6.439 0 0 1-3.379 1.413v-3.453c.34-.078.659-.211.946-.393zM15.42 35.48h3.4v1.36h-3.4v-1.36zm13.6 0h3.4v1.36h-3.4v-1.36z"/>
</svg>
