<svg xmlns="http://www.w3.org/2000/svg" width="48" height="48" viewBox="0 0 48 48">
    <g fill="#F7296E" fill-rule="evenodd">
        <path d="M38.1 31.22H9.704c-.39 0-.705.296-.705.662 0 .366.315.662.705.662h28.393c.39 0 .706-.296.706-.662.001-.366-.314-.662-.704-.662zM13.678 19.182l3.633 10.239a.707.707 0 0 0 .905.431.724.724 0 0 0 .424-.92l-3.472-9.783 9.637-3.523 5.355 13.328a.704.704 0 0 0 .92.392c.36-.15.533-.57.385-.936l-5.611-13.965c-.008-.019-.019-.033-.026-.05-.011-.023-.02-.043-.033-.064l-.044-.06c-.012-.016-.024-.035-.04-.049a.717.717 0 0 0-.064-.057c-.012-.01-.023-.022-.037-.03a.706.706 0 0 0-.087-.052l-.026-.014a.715.715 0 0 0-.11-.042l-.015-.004a.785.785 0 0 0-.124-.02l-.01-.002a.745.745 0 0 0-.12.004c-.007.002-.015.002-.024.002a.624.624 0 0 0-.09.022c-.014.005-.028.005-.044.011L14.1 18.011a.719.719 0 0 0-.453.803.75.75 0 0 0 .031.368z"/>
        <path d="M23.548 19.767l-1.776 4.886-1.703-1.45a.67.67 0 0 0-.978.106.75.75 0 0 0 .101 1.025l2.45 2.084c.005.005.012.007.017.01a.717.717 0 0 0 .175.106l.009.003c.01.005.021.007.032.01a.66.66 0 0 0 .205.037.647.647 0 0 0 .184-.03.647.647 0 0 0 .175-.08l.046-.028a.7.7 0 0 0 .135-.13l.001-.002c.005-.005.006-.011.01-.016a.755.755 0 0 0 .09-.166c.003-.006.007-.01.009-.017l2.119-5.828c.138-.376-.042-.798-.403-.94a.683.683 0 0 0-.898.42zM38.086 33.207H25.614c-.397 0-.719.296-.719.662 0 .366.322.662.72.662h12.47c.397 0 .719-.296.719-.662.001-.366-.32-.662-.718-.662z"/>
    </g>
</svg>
